<svg width="180" height="60" viewBox="0 0 180 60" fill="none" xmlns="http://www.w3.org/2000/svg">
<rect width="180" height="60" rx="16" fill="black"/>
<path d="M53.0043 35H59.3331V33.4538H54.8487V24.8182H53.0043V35ZM63.9551 35.1491C65.7349 35.1491 66.9579 34.2791 67.2761 32.9517L65.5957 32.7628C65.3521 33.4091 64.7555 33.7472 63.9799 33.7472C62.8166 33.7472 62.046 32.9815 62.0311 31.674H67.3507V31.1222C67.3507 28.4425 65.7399 27.2642 63.8606 27.2642C61.6731 27.2642 60.2463 28.87 60.2463 31.2266C60.2463 33.6229 61.6532 35.1491 63.9551 35.1491ZM62.0361 30.4609C62.0907 29.4865 62.8116 28.6662 63.8855 28.6662C64.9196 28.6662 65.6156 29.4219 65.6255 30.4609H62.0361ZM70.7907 35.1541C71.9888 35.1541 72.7047 34.5923 73.0329 33.951H73.0925V35H74.8226V29.8892C74.8226 27.8707 73.177 27.2642 71.7204 27.2642C70.1145 27.2642 68.8816 27.9801 68.4839 29.3722L70.1643 29.6108C70.3432 29.0888 70.8503 28.6413 71.7303 28.6413C72.5655 28.6413 73.0229 29.0689 73.0229 29.8196V29.8494C73.0229 30.3665 72.481 30.3913 71.1337 30.5355C69.6522 30.6946 68.2353 31.1371 68.2353 32.8572C68.2353 34.3587 69.334 35.1541 70.7907 35.1541ZM71.258 33.8317C70.5073 33.8317 69.9704 33.4886 69.9704 32.8274C69.9704 32.1364 70.5719 31.848 71.3773 31.7337C71.8496 31.669 72.7942 31.5497 73.0279 31.3608V32.2607C73.0279 33.1108 72.3418 33.8317 71.258 33.8317ZM76.3523 35H78.152V30.5107C78.152 29.5412 78.8828 28.8551 79.8722 28.8551C80.1754 28.8551 80.5533 28.9098 80.7074 28.9595V27.304C80.5433 27.2741 80.26 27.2543 80.0611 27.2543C79.1861 27.2543 78.4553 27.7514 78.1769 28.6364H78.0973V27.3636H76.3523V35ZM83.4228 30.5256C83.4228 29.4219 84.089 28.7855 85.0386 28.7855C85.9682 28.7855 86.5251 29.397 86.5251 30.4162V35H88.3248V30.1378C88.3298 28.3082 87.2857 27.2642 85.7097 27.2642C84.5663 27.2642 83.7807 27.8111 83.4327 28.6612H83.3432V27.3636H81.6231V35H83.4228V30.5256ZM93.1465 24.8182V35H94.9164V27.9901H95.0109L97.8248 34.9702H99.1472L101.961 28.005H102.056V35H103.826V24.8182H101.568L98.5457 32.196H98.4264L95.4036 24.8182H93.1465ZM108.805 35.1491C111.043 35.1491 112.465 33.5732 112.465 31.2116C112.465 28.8452 111.043 27.2642 108.805 27.2642C106.568 27.2642 105.146 28.8452 105.146 31.2116C105.146 33.5732 106.568 35.1491 108.805 35.1491ZM108.815 33.7074C107.577 33.7074 106.971 32.6037 106.971 31.2067C106.971 29.8097 107.577 28.6911 108.815 28.6911C110.033 28.6911 110.64 29.8097 110.64 31.2067C110.64 32.6037 110.033 33.7074 108.815 33.7074ZM113.712 35H115.512V30.5107C115.512 29.5412 116.243 28.8551 117.232 28.8551C117.535 28.8551 117.913 28.9098 118.067 28.9595V27.304C117.903 27.2741 117.62 27.2543 117.421 27.2543C116.546 27.2543 115.815 27.7514 115.537 28.6364H115.457V27.3636H113.712V35ZM122.049 35.1491C123.829 35.1491 125.052 34.2791 125.37 32.9517L123.69 32.7628C123.446 33.4091 122.849 33.7472 122.074 33.7472C120.911 33.7472 120.14 32.9815 120.125 31.674H125.445V31.1222C125.445 28.4425 123.834 27.2642 121.955 27.2642C119.767 27.2642 118.34 28.87 118.34 31.2266C118.34 33.6229 119.747 35.1491 122.049 35.1491ZM120.13 30.4609C120.185 29.4865 120.906 28.6662 121.979 28.6662C123.014 28.6662 123.71 29.4219 123.72 30.4609H120.13Z" fill="white"/>
</svg>
