<svg width="118" height="40" viewBox="0 0 118 40" fill="none" xmlns="http://www.w3.org/2000/svg">
<path d="M9.75 9.5H14.25C14.4489 9.5 14.6397 9.42098 14.7803 9.28033C14.921 9.13968 15 8.94891 15 8.75C15 8.55109 14.921 8.36032 14.7803 8.21967C14.6397 8.07902 14.4489 8 14.25 8H9.75C9.55109 8 9.36032 8.07902 9.21967 8.21967C9.07902 8.36032 9 8.55109 9 8.75C9 8.94891 9.07902 9.13968 9.21967 9.28033C9.36032 9.42098 9.55109 9.5 9.75 9.5Z" fill="black"/>
<path d="M12 11C10.22 11 8.47991 11.5278 6.99987 12.5168C5.51983 13.5057 4.36628 14.9113 3.68509 16.5558C3.0039 18.2004 2.82567 20.01 3.17294 21.7558C3.5202 23.5016 4.37737 25.1053 5.63604 26.364C6.89472 27.6226 8.49836 28.4798 10.2442 28.8271C11.99 29.1743 13.7996 28.9961 15.4442 28.3149C17.0887 27.6337 18.4943 26.4802 19.4832 25.0001C20.4722 23.5201 21 21.78 21 20C20.9973 17.6139 20.0482 15.3263 18.361 13.639C16.6737 11.9518 14.3861 11.0027 12 11ZM16.2426 16.818L12.5304 20.5303C12.4607 20.6 12.378 20.6552 12.2871 20.6929C12.1961 20.7306 12.0985 20.75 12 20.75C11.9015 20.75 11.804 20.7306 11.713 20.6929C11.622 20.6553 11.5393 20.6 11.4697 20.5304C11.4 20.4607 11.3448 20.378 11.3071 20.2871C11.2694 20.1961 11.25 20.0985 11.25 20C11.25 19.9015 11.2694 19.804 11.3071 19.713C11.3448 19.622 11.4 19.5393 11.4696 19.4697L15.182 15.7574C15.2516 15.6877 15.3343 15.6325 15.4253 15.5948C15.5163 15.5571 15.6138 15.5377 15.7123 15.5377C15.8108 15.5377 15.9083 15.5571 15.9993 15.5948C16.0903 15.6324 16.173 15.6877 16.2426 15.7573C16.3123 15.827 16.3675 15.9097 16.4052 16.0006C16.4429 16.0916 16.4623 16.1892 16.4623 16.2877C16.4623 16.3861 16.4429 16.4837 16.4052 16.5747C16.3675 16.6657 16.3123 16.7483 16.2427 16.818H16.2426Z" fill="black"/>
<path d="M44.8423 26.8182H43.3459L40.8054 28.4787V29.9503L43.2415 28.3594H43.3011V37H44.8423V26.8182ZM50.6774 37.1392C52.7257 37.1392 54.1873 35.6925 54.1824 33.7088C54.1873 31.7401 52.8152 30.3082 50.9608 30.3082C50.2051 30.3082 49.5041 30.5966 49.1064 30.9844H49.0467L49.3699 28.1357H53.6902V26.8182H48.0922L47.5204 31.9489L48.9274 32.1577C49.3102 31.8146 49.9963 31.581 50.6128 31.581C51.8209 31.5909 52.6959 32.4957 52.6959 33.7386C52.6959 34.9616 51.8457 35.8466 50.6774 35.8466C49.693 35.8466 48.9125 35.2202 48.8329 34.3452H47.3414C47.4011 35.9659 48.8081 37.1392 50.6774 37.1392ZM59.2825 26.8182V37H60.7442V29.6271H60.8386L63.8415 36.9851H65.0545L68.0574 29.6321H68.1518V37H69.6135V26.8182H67.7491L64.5077 34.733H64.3883L61.1469 26.8182H59.2825ZM71.4476 37H72.9342V29.3636H71.4476V37ZM72.1984 28.1854C72.7104 28.1854 73.138 27.7876 73.138 27.3004C73.138 26.8132 72.7104 26.4105 72.1984 26.4105C71.6813 26.4105 71.2587 26.8132 71.2587 27.3004C71.2587 27.7876 71.6813 28.1854 72.1984 28.1854ZM76.1405 32.4659C76.1405 31.2479 76.8862 30.5518 77.9203 30.5518C78.9295 30.5518 79.541 31.2131 79.541 32.3217V37H81.0276V32.1428C81.0276 30.2536 79.9885 29.2642 78.4274 29.2642C77.279 29.2642 76.5283 29.7962 76.1753 30.6065H76.0808V29.3636H74.654V37H76.1405V32.4659ZM87.5785 33.8331C87.5835 35.1307 86.619 35.7472 85.7838 35.7472C84.864 35.7472 84.2277 35.081 84.2277 34.0419V29.3636H82.7412V34.2209C82.7412 36.1151 83.7802 37.0994 85.2468 37.0994C86.3953 37.0994 87.1758 36.4929 87.5288 35.6776H87.6084V37H89.07V29.3636H87.5785V33.8331ZM94.352 29.3636H92.7859V27.5341H91.2994V29.3636H90.1808V30.5568H91.2994V35.0661C91.2944 36.4531 92.3534 37.1243 93.5267 37.0994C93.999 37.0945 94.3172 37.005 94.4912 36.9403L94.2227 35.7124C94.1233 35.7322 93.9393 35.777 93.7007 35.777C93.2184 35.777 92.7859 35.6179 92.7859 34.7578V30.5568H94.352V29.3636ZM98.9255 37.1541C100.591 37.1541 101.769 36.3338 102.107 35.0909L100.7 34.8374C100.432 35.5582 99.7856 35.9261 98.9404 35.9261C97.6677 35.9261 96.8126 35.1009 96.7728 33.6293H102.202V33.1023C102.202 30.343 100.551 29.2642 98.8211 29.2642C96.6932 29.2642 95.2912 30.8849 95.2912 33.2315C95.2912 35.603 96.6734 37.1541 98.9255 37.1541ZM96.7778 32.5156C96.8374 31.4318 97.6229 30.4922 98.831 30.4922C99.9844 30.4922 100.74 31.3473 100.745 32.5156H96.7778ZM109.293 31.228C108.985 30.0398 108.055 29.2642 106.405 29.2642C104.68 29.2642 103.457 30.174 103.457 31.5263C103.457 32.6101 104.113 33.331 105.545 33.6491L106.837 33.9325C107.573 34.0966 107.916 34.4247 107.916 34.902C107.916 35.4936 107.285 35.956 106.31 35.956C105.421 35.956 104.849 35.5732 104.67 34.8224L103.233 35.0412C103.482 36.3935 104.605 37.1541 106.32 37.1541C108.165 37.1541 109.443 36.1747 109.443 34.7926C109.443 33.7138 108.756 33.0476 107.354 32.7244L106.141 32.446C105.301 32.2472 104.938 31.9638 104.943 31.4467C104.938 30.8601 105.575 30.4425 106.42 30.4425C107.345 30.4425 107.772 30.9545 107.946 31.4666L109.293 31.228Z" fill="black" fill-opacity="0.6"/>
<path d="M48.2074 6.1108C47.9091 4.24432 46.4474 3.15341 44.6023 3.15341C42.3438 3.15341 40.6776 4.84517 40.6776 7.63636C40.6776 10.4276 42.3352 12.1193 44.6023 12.1193C46.5199 12.1193 47.9219 10.9176 48.2074 9.19176L46.8778 9.1875C46.652 10.304 45.7145 10.9176 44.6108 10.9176C43.1151 10.9176 41.9858 9.77131 41.9858 7.63636C41.9858 5.51847 43.1108 4.35511 44.6151 4.35511C45.7273 4.35511 46.6605 4.98153 46.8778 6.1108H48.2074ZM58.564 7.63636C58.564 4.84517 56.8935 3.15341 54.635 3.15341C52.368 3.15341 50.7018 4.84517 50.7018 7.63636C50.7018 10.4233 52.368 12.1193 54.635 12.1193C56.8935 12.1193 58.564 10.4276 58.564 7.63636ZM57.26 7.63636C57.26 9.76278 56.135 10.9176 54.635 10.9176C53.1308 10.9176 52.01 9.76278 52.01 7.63636C52.01 5.50994 53.1308 4.35511 54.635 4.35511C56.135 4.35511 57.26 5.50994 57.26 7.63636ZM68.9866 7.63636C68.9866 4.84517 67.3162 3.15341 65.0577 3.15341C62.7906 3.15341 61.1244 4.84517 61.1244 7.63636C61.1244 10.4233 62.7906 12.1193 65.0577 12.1193C67.3162 12.1193 68.9866 10.4276 68.9866 7.63636ZM67.6827 7.63636C67.6827 9.76278 66.5577 10.9176 65.0577 10.9176C63.5534 10.9176 62.4327 9.76278 62.4327 7.63636C62.4327 5.50994 63.5534 4.35511 65.0577 4.35511C66.5577 4.35511 67.6827 5.50994 67.6827 7.63636ZM71.8283 12H73.1451V9.28551L74.1763 8.10085L76.9974 12H78.5826L75.0499 7.2017L78.5698 3.27273H76.9121L73.2516 7.44034H73.1451V3.27273H71.8283V12ZM84.9425 4.40625H87.6612V12H88.9737V4.40625H91.6967V3.27273H84.9425V4.40625ZM95.706 3.27273H94.3893V12H95.706V3.27273ZM98.8237 3.27273V12H100.076V5.6804H100.157L102.731 11.9872H103.771L106.345 5.68466H106.426V12H107.679V3.27273H106.081L103.302 10.0568H103.2L100.422 3.27273H98.8237ZM110.793 12H116.316V10.8665H112.11V8.1946H115.979V7.06534H112.11V4.40625H116.265V3.27273H110.793V12Z" fill="black"/>
</svg>
