<svg width="229" height="60" viewBox="0 0 229 60" fill="none" xmlns="http://www.w3.org/2000/svg">
<rect width="229" height="60" rx="16" fill="black"/>
<path fill-rule="evenodd" clip-rule="evenodd" d="M181.837 19H190.087C193.883 19 196.962 22.0786 196.962 25.875V34.125C196.962 37.9214 193.883 41 190.087 41H181.837C178.04 41 174.962 37.9214 174.962 34.125V25.875C174.962 22.0786 178.04 19 181.837 19ZM190.087 38.9375C192.74 38.9375 194.899 36.7787 194.899 34.125V25.875C194.899 23.2213 192.74 21.0625 190.087 21.0625H181.837C179.183 21.0625 177.024 23.2213 177.024 25.875V34.125C177.024 36.7787 179.183 38.9375 181.837 38.9375H190.087Z" fill="white"/>
<path fill-rule="evenodd" clip-rule="evenodd" d="M180.462 30C180.462 26.9626 182.924 24.5 185.962 24.5C188.999 24.5 191.462 26.9626 191.462 30C191.462 33.0374 188.999 35.5 185.962 35.5C182.924 35.5 180.462 33.0374 180.462 30ZM182.524 30C182.524 31.8948 184.067 33.4375 185.962 33.4375C187.856 33.4375 189.399 31.8948 189.399 30C189.399 28.1039 187.856 26.5625 185.962 26.5625C184.067 26.5625 182.524 28.1039 182.524 30Z" fill="white"/>
<circle cx="191.874" cy="24.0876" r="0.732875" fill="white"/>
<path d="M34.3665 24.8182H32.343L35.9276 35H38.2045L41.794 24.8182H39.7656L37.1207 32.8324H37.0163L34.3665 24.8182ZM42.7756 35H44.5753V27.3636H42.7756V35ZM43.6804 26.2798C44.2521 26.2798 44.7195 25.8423 44.7195 25.3054C44.7195 24.7635 44.2521 24.326 43.6804 24.326C43.1037 24.326 42.6364 24.7635 42.6364 25.3054C42.6364 25.8423 43.1037 26.2798 43.6804 26.2798ZM52.1815 29.3821C51.9329 28.0895 50.8988 27.2642 49.109 27.2642C47.2695 27.2642 46.0167 28.169 46.0217 29.581C46.0167 30.6946 46.7028 31.4304 48.1694 31.7337L49.472 32.0071C50.173 32.1612 50.5011 32.4446 50.5011 32.8771C50.5011 33.3991 49.9343 33.7919 49.0792 33.7919C48.2539 33.7919 47.717 33.4339 47.5629 32.7479L45.8079 32.9169C46.0316 34.3189 47.2099 35.1491 49.0842 35.1491C50.9933 35.1491 52.3406 34.1598 52.3455 32.7131C52.3406 31.6243 51.6396 30.9581 50.1978 30.6449L48.8953 30.3665C48.1197 30.1925 47.8114 29.924 47.8164 29.4815C47.8114 28.9645 48.3832 28.6065 49.1339 28.6065C49.9641 28.6065 50.4016 29.0589 50.5409 29.5611L52.1815 29.3821ZM53.5496 35H55.3493V27.3636H53.5496V35ZM54.4544 26.2798C55.0261 26.2798 55.4935 25.8423 55.4935 25.3054C55.4935 24.7635 55.0261 24.326 54.4544 24.326C53.8777 24.326 53.4104 24.7635 53.4104 25.3054C53.4104 25.8423 53.8777 26.2798 54.4544 26.2798ZM60.7332 27.3636H59.2268V25.5341H57.4271V27.3636H56.3432V28.7557H57.4271V33.0014C57.4171 34.4382 58.4611 35.1442 59.8134 35.1044C60.3255 35.0895 60.6785 34.9901 60.8724 34.9254L60.5691 33.5185C60.4697 33.5433 60.2658 33.5881 60.0421 33.5881C59.5897 33.5881 59.2268 33.429 59.2268 32.7031V28.7557H60.7332V27.3636ZM74.3285 29.9091C74.3285 26.6179 72.32 24.679 69.6503 24.679C66.9755 24.679 64.972 26.6179 64.972 29.9091C64.972 33.1953 66.9755 35.1392 69.6503 35.1392C72.32 35.1392 74.3285 33.2003 74.3285 29.9091ZM72.4741 29.9091C72.4741 32.2259 71.3108 33.4837 69.6503 33.4837C67.9947 33.4837 66.8264 32.2259 66.8264 29.9091C66.8264 27.5923 67.9947 26.3345 69.6503 26.3345C71.3108 26.3345 72.4741 27.5923 72.4741 29.9091ZM80.58 31.7884C80.58 32.9517 79.7497 33.5284 78.9542 33.5284C78.0892 33.5284 77.5125 32.9169 77.5125 31.9474V27.3636H75.7128V32.2259C75.7128 34.0604 76.7568 35.0994 78.2582 35.0994C79.4017 35.0994 80.2071 34.4979 80.5551 33.6428H80.6346V35H82.3797V27.3636H80.58V31.7884ZM83.9503 35H85.7501V30.5107C85.7501 29.5412 86.4809 28.8551 87.4702 28.8551C87.7735 28.8551 88.1513 28.9098 88.3055 28.9595V27.304C88.1414 27.2741 87.858 27.2543 87.6591 27.2543C86.7841 27.2543 86.0533 27.7514 85.7749 28.6364H85.6954V27.3636H83.9503V35ZM94.3378 24.8182H92.4933V35H94.3378V24.8182ZM97.7753 30.5256C97.7753 29.4219 98.4415 28.7855 99.3911 28.7855C100.321 28.7855 100.878 29.397 100.878 30.4162V35H102.677V30.1378C102.682 28.3082 101.638 27.2642 100.062 27.2642C98.9188 27.2642 98.1332 27.8111 97.7852 28.6612H97.6957V27.3636H95.9756V35H97.7753V30.5256ZM110.262 29.3821C110.014 28.0895 108.98 27.2642 107.19 27.2642C105.35 27.2642 104.098 28.169 104.103 29.581C104.098 30.6946 104.784 31.4304 106.25 31.7337L107.553 32.0071C108.254 32.1612 108.582 32.4446 108.582 32.8771C108.582 33.3991 108.015 33.7919 107.16 33.7919C106.335 33.7919 105.798 33.4339 105.644 32.7479L103.889 32.9169C104.112 34.3189 105.291 35.1491 107.165 35.1491C109.074 35.1491 110.421 34.1598 110.426 32.7131C110.421 31.6243 109.72 30.9581 108.279 30.6449L106.976 30.3665C106.201 30.1925 105.892 29.924 105.897 29.4815C105.892 28.9645 106.464 28.6065 107.215 28.6065C108.045 28.6065 108.483 29.0589 108.622 29.5611L110.262 29.3821ZM115.444 27.3636H113.937V25.5341H112.138V27.3636H111.054V28.7557H112.138V33.0014C112.128 34.4382 113.172 35.1442 114.524 35.1044C115.036 35.0895 115.389 34.9901 115.583 34.9254L115.28 33.5185C115.18 33.5433 114.976 33.5881 114.753 33.5881C114.3 33.5881 113.937 33.429 113.937 32.7031V28.7557H115.444V27.3636ZM118.866 35.1541C120.064 35.1541 120.78 34.5923 121.108 33.951H121.168V35H122.898V29.8892C122.898 27.8707 121.253 27.2642 119.796 27.2642C118.19 27.2642 116.957 27.9801 116.559 29.3722L118.24 29.6108C118.419 29.0888 118.926 28.6413 119.806 28.6413C120.641 28.6413 121.098 29.0689 121.098 29.8196V29.8494C121.098 30.3665 120.557 30.3913 119.209 30.5355C117.728 30.6946 116.311 31.1371 116.311 32.8572C116.311 34.3587 117.41 35.1541 118.866 35.1541ZM119.334 33.8317C118.583 33.8317 118.046 33.4886 118.046 32.8274C118.046 32.1364 118.647 31.848 119.453 31.7337C119.925 31.669 120.87 31.5497 121.103 31.3608V32.2607C121.103 33.1108 120.417 33.8317 119.334 33.8317ZM127.749 38.0227C129.812 38.0227 131.333 37.0781 131.333 35.1243V27.3636H129.559V28.6264H129.459C129.186 28.0746 128.614 27.2642 127.267 27.2642C125.502 27.2642 124.115 28.6463 124.115 31.157C124.115 33.6477 125.502 34.8906 127.262 34.8906C128.569 34.8906 129.181 34.1896 129.459 33.6278H129.549V35.0746C129.549 36.1982 128.803 36.6605 127.779 36.6605C126.695 36.6605 126.218 36.1484 125.999 35.701L124.378 36.0938C124.706 37.1626 125.805 38.0227 127.749 38.0227ZM127.764 33.4787C126.576 33.4787 125.949 32.554 125.949 31.147C125.949 29.7599 126.566 28.7408 127.764 28.7408C128.922 28.7408 129.559 29.7003 129.559 31.147C129.559 32.6037 128.912 33.4787 127.764 33.4787ZM132.898 35H134.698V30.5107C134.698 29.5412 135.428 28.8551 136.418 28.8551C136.721 28.8551 137.099 28.9098 137.253 28.9595V27.304C137.089 27.2741 136.806 27.2543 136.607 27.2543C135.732 27.2543 135.001 27.7514 134.722 28.6364H134.643V27.3636H132.898V35ZM140.216 35.1541C141.414 35.1541 142.13 34.5923 142.458 33.951H142.518V35H144.248V29.8892C144.248 27.8707 142.602 27.2642 141.145 27.2642C139.54 27.2642 138.307 27.9801 137.909 29.3722L139.589 29.6108C139.768 29.0888 140.275 28.6413 141.155 28.6413C141.991 28.6413 142.448 29.0689 142.448 29.8196V29.8494C142.448 30.3665 141.906 30.3913 140.559 30.5355C139.077 30.6946 137.66 31.1371 137.66 32.8572C137.66 34.3587 138.759 35.1541 140.216 35.1541ZM140.683 33.8317C139.932 33.8317 139.395 33.4886 139.395 32.8274C139.395 32.1364 139.997 31.848 140.802 31.7337C141.275 31.669 142.219 31.5497 142.453 31.3608V32.2607C142.453 33.1108 141.767 33.8317 140.683 33.8317ZM145.777 35H147.577V30.3565C147.577 29.4169 148.203 28.7805 148.979 28.7805C149.74 28.7805 150.262 29.2926 150.262 30.0781V35H152.027V30.2372C152.027 29.3771 152.539 28.7805 153.409 28.7805C154.135 28.7805 154.711 29.2081 154.711 30.1527V35H156.516V29.8743C156.516 28.169 155.532 27.2642 154.13 27.2642C153.021 27.2642 152.176 27.8111 151.838 28.6612H151.758C151.465 27.7962 150.724 27.2642 149.695 27.2642C148.671 27.2642 147.905 27.7912 147.587 28.6612H147.497V27.3636H145.777V35Z" fill="white"/>
</svg>
