<svg width="139" height="40" viewBox="0 0 139 40" fill="none" xmlns="http://www.w3.org/2000/svg">
<rect width="139" height="40" rx="20" fill="black" fill-opacity="0.05"/>
<path d="M25.75 9.5H30.25C30.4489 9.5 30.6397 9.42098 30.7803 9.28033C30.921 9.13968 31 8.94891 31 8.75C31 8.55109 30.921 8.36032 30.7803 8.21967C30.6397 8.07902 30.4489 8 30.25 8H25.75C25.5511 8 25.3603 8.07902 25.2197 8.21967C25.079 8.36032 25 8.55109 25 8.75C25 8.94891 25.079 9.13968 25.2197 9.28033C25.3603 9.42098 25.5511 9.5 25.75 9.5Z" fill="black"/>
<path d="M28 11C26.22 11 24.4799 11.5278 22.9999 12.5168C21.5198 13.5057 20.3663 14.9113 19.6851 16.5558C19.0039 18.2004 18.8257 20.01 19.1729 21.7558C19.5202 23.5016 20.3774 25.1053 21.636 26.364C22.8947 27.6226 24.4984 28.4798 26.2442 28.8271C27.99 29.1743 29.7996 28.9961 31.4442 28.3149C33.0887 27.6337 34.4943 26.4802 35.4832 25.0001C36.4722 23.5201 37 21.78 37 20C36.9973 17.6139 36.0482 15.3263 34.361 13.639C32.6737 11.9518 30.3861 11.0027 28 11ZM32.2426 16.818L28.5304 20.5303C28.4607 20.6 28.378 20.6552 28.2871 20.6929C28.1961 20.7306 28.0985 20.75 28 20.75C27.9015 20.75 27.804 20.7306 27.713 20.6929C27.622 20.6553 27.5393 20.6 27.4697 20.5304C27.4 20.4607 27.3448 20.378 27.3071 20.2871C27.2694 20.1961 27.25 20.0985 27.25 20C27.25 19.9015 27.2694 19.804 27.3071 19.713C27.3448 19.622 27.4 19.5393 27.4696 19.4697L31.182 15.7574C31.2516 15.6877 31.3343 15.6325 31.4253 15.5948C31.5163 15.5571 31.6138 15.5377 31.7123 15.5377C31.8108 15.5377 31.9083 15.5571 31.9993 15.5948C32.0903 15.6324 32.173 15.6877 32.2426 15.7573C32.3123 15.827 32.3675 15.9097 32.4052 16.0006C32.4429 16.0916 32.4623 16.1892 32.4623 16.2877C32.4623 16.3861 32.4429 16.4837 32.4052 16.5747C32.3675 16.6657 32.3123 16.7483 32.2427 16.818H32.2426Z" fill="black"/>
<path d="M54.5241 25.1392C56.6023 25.1392 58.1286 23.8963 58.1236 22.206C58.1286 20.9183 57.348 19.9936 55.9957 19.7848V19.7053C57.0597 19.4318 57.7507 18.5966 57.7457 17.4531C57.7507 15.9567 56.5227 14.679 54.5639 14.679C52.6946 14.679 51.1932 15.8075 51.1435 17.4631H52.63C52.6648 16.5284 53.5447 15.9616 54.544 15.9616C55.5831 15.9616 56.2642 16.593 56.2592 17.5327C56.2642 18.517 55.4737 19.1634 54.3452 19.1634H53.4851V20.4162H54.3452C55.7571 20.4162 56.5724 21.1321 56.5724 22.1562C56.5724 23.1456 55.7124 23.8168 54.5142 23.8168C53.4105 23.8168 52.5504 23.25 52.4908 22.3452H50.9297C50.9943 24.0057 52.4659 25.1392 54.5241 25.1392ZM63.2676 25.169C65.6191 25.169 66.9963 23.25 66.9963 19.9141C66.9963 16.603 65.5993 14.679 63.2676 14.679C60.9309 14.679 59.5389 16.598 59.5339 19.9141C59.5339 23.245 60.9111 25.1641 63.2676 25.169ZM63.2676 23.8416C61.8905 23.8416 61.0602 22.4595 61.0602 19.9141C61.0652 17.3786 61.8954 15.9815 63.2676 15.9815C64.6348 15.9815 65.47 17.3786 65.47 19.9141C65.47 22.4595 64.6397 23.8416 63.2676 23.8416ZM72.0442 14.8182V25H73.5059V17.6271H73.6003L76.6032 24.9851H77.8162L80.8191 17.6321H80.9136V25H82.3752V14.8182H80.5109L77.2694 22.733H77.1501L73.9086 14.8182H72.0442ZM84.2094 25H85.6959V17.3636H84.2094V25ZM84.9601 16.1854C85.4722 16.1854 85.8997 15.7876 85.8997 15.3004C85.8997 14.8132 85.4722 14.4105 84.9601 14.4105C84.443 14.4105 84.0204 14.8132 84.0204 15.3004C84.0204 15.7876 84.443 16.1854 84.9601 16.1854ZM88.9022 20.4659C88.9022 19.2479 89.6479 18.5518 90.682 18.5518C91.6913 18.5518 92.3028 19.2131 92.3028 20.3217V25H93.7893V20.1428C93.7893 18.2536 92.7502 17.2642 91.1891 17.2642C90.0407 17.2642 89.29 17.7962 88.937 18.6065H88.8425V17.3636H87.4157V25H88.9022V20.4659ZM100.34 21.8331C100.345 23.1307 99.3807 23.7472 98.5455 23.7472C97.6258 23.7472 96.9894 23.081 96.9894 22.0419V17.3636H95.5029V22.2209C95.5029 24.1151 96.5419 25.0994 98.0086 25.0994C99.157 25.0994 99.9375 24.4929 100.291 23.6776H100.37V25H101.832V17.3636H100.34V21.8331ZM107.114 17.3636H105.548V15.5341H104.061V17.3636H102.943V18.5568H104.061V23.0661C104.056 24.4531 105.115 25.1243 106.288 25.0994C106.761 25.0945 107.079 25.005 107.253 24.9403L106.984 23.7124C106.885 23.7322 106.701 23.777 106.462 23.777C105.98 23.777 105.548 23.6179 105.548 22.7578V18.5568H107.114V17.3636ZM111.687 25.1541C113.353 25.1541 114.531 24.3338 114.869 23.0909L113.462 22.8374C113.194 23.5582 112.547 23.9261 111.702 23.9261C110.429 23.9261 109.574 23.1009 109.535 21.6293H114.963V21.1023C114.963 18.343 113.313 17.2642 111.583 17.2642C109.455 17.2642 108.053 18.8849 108.053 21.2315C108.053 23.603 109.435 25.1541 111.687 25.1541ZM109.539 20.5156C109.599 19.4318 110.385 18.4922 111.593 18.4922C112.746 18.4922 113.502 19.3473 113.507 20.5156H109.539ZM122.055 19.228C121.747 18.0398 120.817 17.2642 119.167 17.2642C117.441 17.2642 116.218 18.174 116.218 19.5263C116.218 20.6101 116.875 21.331 118.307 21.6491L119.599 21.9325C120.335 22.0966 120.678 22.4247 120.678 22.902C120.678 23.4936 120.047 23.956 119.072 23.956C118.182 23.956 117.611 23.5732 117.432 22.8224L115.995 23.0412C116.243 24.3935 117.367 25.1541 119.082 25.1541C120.927 25.1541 122.204 24.1747 122.204 22.7926C122.204 21.7138 121.518 21.0476 120.116 20.7244L118.903 20.446C118.063 20.2472 117.7 19.9638 117.705 19.4467C117.7 18.8601 118.336 18.4425 119.182 18.4425C120.106 18.4425 120.534 18.9545 120.708 19.4666L122.055 19.228Z" fill="black" fill-opacity="0.6"/>
</svg>
