<svg width="80" height="111" viewBox="0 0 80 111" fill="none" xmlns="http://www.w3.org/2000/svg">
<circle cx="40" cy="40" r="40" fill="#E7FAFE"/>
<path d="M33.9999 37V30H45.9999V37" stroke="black" stroke-width="2" stroke-linecap="round" stroke-linejoin="round"/>
<path d="M33.9999 46H31.9999C31.4694 46 30.9607 45.7893 30.5857 45.4142C30.2106 45.0391 29.9999 44.5304 29.9999 44V39C29.9999 38.4696 30.2106 37.9609 30.5857 37.5858C30.9607 37.2107 31.4694 37 31.9999 37H47.9999C48.5303 37 49.039 37.2107 49.4141 37.5858C49.7892 37.9609 49.9999 38.4696 49.9999 39V44C49.9999 44.5304 49.7892 45.0391 49.4141 45.4142C49.039 45.7893 48.5303 46 47.9999 46H45.9999" stroke="black" stroke-width="2" stroke-linecap="round" stroke-linejoin="round"/>
<path d="M45.9999 42H33.9999V50H45.9999V42Z" stroke="black" stroke-width="2" stroke-linecap="round" stroke-linejoin="round"/>
<path d="M20.3459 108H21.6627V104.932H23.4525C25.4766 104.932 26.478 103.709 26.478 102.098C26.478 100.491 25.4851 99.2727 23.4567 99.2727H20.3459V108ZM21.6627 103.815V100.402H23.3161C24.6201 100.402 25.1527 101.109 25.1527 102.098C25.1527 103.087 24.6201 103.815 23.3331 103.815H21.6627ZM29.2217 108H30.5385V104.697H32.3282C32.3581 104.697 32.3836 104.697 32.4135 104.697L34.1862 108H35.6862L33.7515 104.467C34.8211 104.071 35.3538 103.18 35.3538 102.009C35.3538 100.402 34.3566 99.2727 32.3325 99.2727H29.2217V108ZM30.5385 103.564V100.402H32.1919C33.4916 100.402 34.0285 101.02 34.0285 102.009C34.0285 102.993 33.4916 103.564 32.2089 103.564H30.5385ZM39.4728 99.2727H38.1561V108H39.4728V99.2727ZM49.6345 99.2727H48.3305V105.682H48.2495L43.8092 99.2727H42.5904V108H43.9072V101.599H43.9882L48.4243 108H49.6345V99.2727ZM52.3249 100.406H55.0436V108H56.3561V100.406H59.0792V99.2727H52.3249V100.406Z" fill="black"/>
</svg>
