<svg width="80" height="111" viewBox="0 0 80 111" fill="none" xmlns="http://www.w3.org/2000/svg">
<circle cx="40" cy="40" r="40" fill="#E7FAFE"/>
<path d="M32 40V48C32 48.5304 32.2107 49.0391 32.5858 49.4142C32.9609 49.7893 33.4696 50 34 50H46C46.5304 50 47.0391 49.7893 47.4142 49.4142C47.7893 49.0391 48 48.5304 48 48V40" stroke="black" stroke-width="2" stroke-linecap="round" stroke-linejoin="round"/>
<path d="M44 34L40 30L36 34" stroke="black" stroke-width="2" stroke-linecap="round" stroke-linejoin="round"/>
<path d="M40 30V43" stroke="black" stroke-width="2" stroke-linecap="round" stroke-linejoin="round"/>
<path d="M23.8207 101.565H25.0906C25.0522 100.168 23.8164 99.1534 22.0437 99.1534C20.2923 99.1534 18.95 100.155 18.95 101.659C18.95 102.874 19.8193 103.585 21.2213 103.964L22.2525 104.246C23.1858 104.493 23.9059 104.8 23.9059 105.575C23.9059 106.428 23.092 106.99 21.9713 106.99C20.9571 106.99 20.1133 106.538 20.0366 105.588H18.7156C18.8008 107.169 20.0238 108.145 21.9798 108.145C24.0295 108.145 25.2099 107.067 25.2099 105.588C25.2099 104.016 23.8079 103.406 22.7 103.134L21.8477 102.912C21.1659 102.737 20.2582 102.418 20.2625 101.582C20.2625 100.841 20.94 100.291 22.0139 100.291C23.0153 100.291 23.727 100.76 23.8207 101.565ZM27.9834 108H29.3002V104.195H33.651V108H34.9721V99.2727H33.651V103.065H29.3002V99.2727H27.9834V108ZM38.8269 108L39.628 105.69H43.0371L43.834 108H45.2317L42.0911 99.2727H40.5698L37.4292 108H38.8269ZM40.0115 104.582L41.2985 100.858H41.3667L42.6536 104.582H40.0115ZM47.692 108H49.0088V104.697H50.7985C50.8284 104.697 50.8539 104.697 50.8838 104.697L52.6565 108H54.1565L52.2218 104.467C53.2914 104.071 53.8241 103.18 53.8241 102.009C53.8241 100.402 52.827 99.2727 50.8028 99.2727H47.692V108ZM49.0088 103.564V100.402H50.6622C51.9619 100.402 52.4988 101.02 52.4988 102.009C52.4988 102.993 51.9619 103.564 50.6792 103.564H49.0088ZM56.6264 108H62.1491V106.866H57.9431V104.195H61.8125V103.065H57.9431V100.406H62.098V99.2727H56.6264V108Z" fill="black"/>
</svg>
