<svg width="200" height="60" viewBox="0 0 200 60" fill="none" xmlns="http://www.w3.org/2000/svg">
<rect width="200" height="60" rx="16" fill="black"/>
<path d="M152 20.25C150.072 20.25 148.187 20.8218 146.583 21.8932C144.98 22.9645 143.73 24.4873 142.992 26.2688C142.254 28.0504 142.061 30.0108 142.437 31.9021C142.814 33.7934 143.742 35.5307 145.106 36.8943C146.469 38.2579 148.207 39.1865 150.098 39.5627C151.989 39.9389 153.95 39.7458 155.731 39.0078C157.513 38.2699 159.035 37.0202 160.107 35.4168C161.178 33.8134 161.75 31.9284 161.75 30C161.747 27.4151 160.719 24.9368 158.891 23.109C157.063 21.2812 154.585 20.253 152 20.25ZM155.416 30.624L150.916 33.624C150.803 33.6995 150.672 33.7428 150.536 33.7494C150.401 33.756 150.266 33.7257 150.146 33.6616C150.026 33.5975 149.926 33.5021 149.856 33.3856C149.787 33.2691 149.75 33.1358 149.75 33V27C149.75 26.8642 149.787 26.7309 149.856 26.6144C149.926 26.4979 150.026 26.4025 150.146 26.3384C150.266 26.2743 150.401 26.244 150.536 26.2506C150.672 26.2572 150.803 26.3005 150.916 26.376L155.416 29.376C155.519 29.4445 155.603 29.5373 155.661 29.6461C155.72 29.755 155.75 29.8765 155.75 30C155.75 30.1235 155.72 30.245 155.661 30.3539C155.603 30.4627 155.519 30.5555 155.416 30.624Z" fill="white"/>
<path d="M39.3665 24.8182H37.343L40.9276 35H43.2045L46.794 24.8182H44.7656L42.1207 32.8324H42.0163L39.3665 24.8182ZM47.7756 35H49.5753V27.3636H47.7756V35ZM48.6804 26.2798C49.2521 26.2798 49.7195 25.8423 49.7195 25.3054C49.7195 24.7635 49.2521 24.326 48.6804 24.326C48.1037 24.326 47.6364 24.7635 47.6364 25.3054C47.6364 25.8423 48.1037 26.2798 48.6804 26.2798ZM54.5266 35.1491C56.3065 35.1491 57.5295 34.2791 57.8477 32.9517L56.1673 32.7628C55.9237 33.4091 55.3271 33.7472 54.5515 33.7472C53.3882 33.7472 52.6176 32.9815 52.6026 31.674H57.9222V31.1222C57.9222 28.4425 56.3114 27.2642 54.4322 27.2642C52.2447 27.2642 50.8178 28.87 50.8178 31.2266C50.8178 33.6229 52.2248 35.1491 54.5266 35.1491ZM52.6076 30.4609C52.6623 29.4865 53.3832 28.6662 54.457 28.6662C55.4911 28.6662 56.1872 29.4219 56.1971 30.4609H52.6076ZM60.6998 35H62.579L64.0109 29.8395H64.1153L65.5471 35H67.4214L69.584 27.3636H67.7445L66.4221 32.7031H66.3475L64.9753 27.3636H63.1607L61.7886 32.733H61.7189L60.3766 27.3636H58.5421L60.6998 35ZM73.8328 35H75.6772V31.2713H77.5565L79.5551 35H81.6133L79.4109 30.9631C80.6091 30.4808 81.2404 29.4567 81.2404 28.0746C81.2404 26.1307 79.9876 24.8182 77.651 24.8182H73.8328V35ZM75.6772 29.7401V26.3594H77.3676C78.7447 26.3594 79.3612 26.9908 79.3612 28.0746C79.3612 29.1584 78.7447 29.7401 77.3775 29.7401H75.6772ZM85.85 35.1491C87.6298 35.1491 88.8528 34.2791 89.171 32.9517L87.4906 32.7628C87.247 33.4091 86.6504 33.7472 85.8749 33.7472C84.7115 33.7472 83.9409 32.9815 83.926 31.674H89.2456V31.1222C89.2456 28.4425 87.6348 27.2642 85.7555 27.2642C83.568 27.2642 82.1412 28.87 82.1412 31.2266C82.1412 33.6229 83.5482 35.1491 85.85 35.1491ZM83.931 30.4609C83.9857 29.4865 84.7065 28.6662 85.7804 28.6662C86.8145 28.6662 87.5105 29.4219 87.5205 30.4609H83.931ZM93.8191 35.1491C95.7382 35.1491 96.9612 34.0107 97.0904 32.3899H95.3703C95.2161 33.2102 94.6245 33.6825 93.834 33.6825C92.7105 33.6825 91.9846 32.7429 91.9846 31.1818C91.9846 29.6406 92.7254 28.7159 93.834 28.7159C94.6991 28.7159 95.2311 29.2727 95.3703 30.0085H97.0904C96.9661 28.353 95.6735 27.2642 93.8092 27.2642C91.572 27.2642 90.16 28.88 90.16 31.2116C90.16 33.5234 91.5372 35.1491 93.8191 35.1491ZM98.2882 35H100.088V27.3636H98.2882V35ZM99.1931 26.2798C99.7648 26.2798 100.232 25.8423 100.232 25.3054C100.232 24.7635 99.7648 24.326 99.1931 24.326C98.6164 24.326 98.149 24.7635 98.149 25.3054C98.149 25.8423 98.6164 26.2798 99.1931 26.2798ZM101.659 37.8636H103.458V33.7969H103.533C103.816 34.3537 104.408 35.1342 105.72 35.1342C107.52 35.1342 108.867 33.7074 108.867 31.1918C108.867 28.6463 107.48 27.2642 105.715 27.2642C104.368 27.2642 103.806 28.0746 103.533 28.6264H103.429V27.3636H101.659V37.8636ZM103.424 31.1818C103.424 29.7003 104.06 28.7408 105.218 28.7408C106.416 28.7408 107.033 29.7599 107.033 31.1818C107.033 32.6136 106.406 33.6577 105.218 33.6577C104.07 33.6577 103.424 32.6634 103.424 31.1818ZM113.509 35.1491C115.289 35.1491 116.512 34.2791 116.83 32.9517L115.15 32.7628C114.906 33.4091 114.31 33.7472 113.534 33.7472C112.371 33.7472 111.6 32.9815 111.585 31.674H116.905V31.1222C116.905 28.4425 115.294 27.2642 113.415 27.2642C111.227 27.2642 109.8 28.87 109.8 31.2266C109.8 33.6229 111.207 35.1491 113.509 35.1491ZM111.59 30.4609C111.645 29.4865 112.366 28.6662 113.44 28.6662C114.474 28.6662 115.17 29.4219 115.18 30.4609H111.59ZM124.183 29.3821C123.934 28.0895 122.9 27.2642 121.111 27.2642C119.271 27.2642 118.018 28.169 118.023 29.581C118.018 30.6946 118.704 31.4304 120.171 31.7337L121.473 32.0071C122.174 32.1612 122.503 32.4446 122.503 32.8771C122.503 33.3991 121.936 33.7919 121.081 33.7919C120.255 33.7919 119.718 33.4339 119.564 32.7479L117.809 32.9169C118.033 34.3189 119.211 35.1491 121.086 35.1491C122.995 35.1491 124.342 34.1598 124.347 32.7131C124.342 31.6243 123.641 30.9581 122.199 30.6449L120.897 30.3665C120.121 30.1925 119.813 29.924 119.818 29.4815C119.813 28.9645 120.385 28.6065 121.135 28.6065C121.966 28.6065 122.403 29.0589 122.542 29.5611L124.183 29.3821Z" fill="white"/>
</svg>
